<svg width="252" height="300" viewBox="0 0 252 300" fill="none" xmlns="http://www.w3.org/2000/svg">
<path d="M225.5 179.5C243.167 179.5 252 187 252 202C252 214 248.667 222.333 242 227C235.333 231.667 224.833 234 210.5 234H200L198 260.5C197 275.833 193.667 286.167 188 291.5C182.667 296.833 173.833 299.5 161.5 299.5C143.833 299.5 135 288.667 135 267C135 263.333 135.167 260.5 135.5 258.5L138 234C89.6667 234 53 233.833 28 233.5C20.6667 233.5 14.1667 230.167 8.5 223.5C2.83333 216.833 2.08616e-07 208.167 2.08616e-07 197.5C2.08616e-07 191.167 1.16667 184.5 3.5 177.5C18.1667 134.833 40.1667 86.3333 69.5 32C75.8333 20.3333 82.1667 12.1667 88.5 7.5C95.1667 2.49998 105.333 -2.55108e-05 119 -2.55108e-05C126.333 -2.55108e-05 131.833 1.66665 135.5 5C139.5 8.33333 141.5 12.6667 141.5 18C141.5 23.6667 139.833 29.3333 136.5 35C103.833 94.6667 80.8333 142.833 67.5 179.5H144.5C148.5 148.5 154 119 161 91C163.667 80.6667 168 72.8333 174 67.5C180 61.8333 188.333 59 199 59C216 59 224.5 66.3333 224.5 81C224.5 85.3333 224.167 88.6667 223.5 91C217.5 119.333 212.167 148.833 207.5 179.5H225.5Z" fill="#FFCF06"/>
</svg>
